HIERARCHY
ROOT ui
{
	 OFFSET 0 0 0
	 CHANNELS 3 XPosition YPosition Z Position
	 EndSite
	 {
	 OFFSET 0 -1 0
	 }
}
ROOT li
{
	 OFFSET 0 0 0
	 CHANNELS 3 XPosition YPosition Z Position
	 EndSite
	 {
	 OFFSET 0 -1 0
	 }
}
ROOT ul
{
	 OFFSET 0 0 0
	 CHANNELS 3 XPosition YPosition Z Position
	 EndSite
	 {
	 OFFSET 0 -1 0
	 }
}
ROOT ll
{
	 OFFSET 0 0 0
	 CHANNELS 3 XPosition YPosition Z Position
	 EndSite
	 {
	 OFFSET 0 -1 0
	 }
}
ROOT tt
{
	 OFFSET 0 0 0
	 CHANNELS 3 XPosition YPosition Z Position
	 EndSite
	 {
	 OFFSET 0 -1 0
	 }
}
ROOT tb
{
	 OFFSET 0 0 0
	 CHANNELS 3 XPosition YPosition Z Position
	 EndSite
	 {
	 OFFSET 0 -1 0
	 }
}
ROOT td
{
	 OFFSET 0 0 0
	 CHANNELS 3 XPosition YPosition Z Position
	 EndSite
	 {
	 OFFSET 0 -1 0
	 }
}
ROOT v
{
	 OFFSET 0 0 0
	 CHANNELS 3 XPosition YPosition Z Position
	 EndSite
	 {
	 OFFSET 0 -1 0
	 }
}
ROOT bn
{
	 OFFSET 0 0 0
	 CHANNELS 3 XPosition YPosition Z Position
	 EndSite
	 {
	 OFFSET 0 -1 0
	 }
}
MOTION
Frames: 21
Frame Time: 0.002
-0.009353543281555176	-0.0037586839199066162	0		0.49528701782226564	-2.435160400390625	0		-1.0484229736328126	0.3781113586425781	0		-0.4289405517578125	-3.122547607421875	0		2.164264404296875	-0.1474618682861328	0		3.7946318359375	0.16653213500976563	0		4.938494140625	0.051582481384277346	0		5.95159765625	0.35605950927734376	0		-0.25451399230957034	5.9201240234375	0		
0.019631607055664062	-2.9940199851989744E-4	0		0.522233154296875	-2.437675048828125	0		-1.0493876953125	0.3868732604980469	0		-0.47000494384765623	-3.12636181640625	0		2.17191845703125	-0.17576080322265625	0		3.790512939453125	0.1603729248046875	0		4.943521484375	0.05933966827392578	0		5.943572265625	0.3230785522460938	0		-0.2546261901855469	5.9198837890625	0		
-0.011389277458190917	0.0037925970554351807	0		0.5161026000976563	-2.445839599609375	0		-1.0155086059570313	0.3812807922363281	0		-0.41123858642578126	-3.145210205078125	0		2.1956455078125	-0.19622605895996093	0		3.795374267578125	0.15311614990234376	0		4.93039501953125	0.053278411865234375	0		5.93808154296875	0.3834410705566406	0		-0.23677381896972657	5.91546337890625	0		
-0.006505782127380371	-4.8229798674583437E-4	0		0.545860107421875	-2.463371826171875	0		-1.0596241455078126	0.3775120544433594	0		-0.433579345703125	-3.172204345703125	0		2.196457275390625	-0.20744912719726563	0		3.79616357421875	0.13990028381347655	0		4.922185546875	0.04016135406494141	0		5.9336748046875	0.3659103088378906	0		-0.2217607421875	5.92608251953125	0		
-0.014580140113830567	3.8720399141311645E-4	0		0.5396975708007813	-2.471521484375	0		-1.0357427978515625	0.37404598999023436	0		-0.37686871337890626	-3.19301171875	0		2.1961015625	-0.23365643310546874	0		3.769037841796875	0.13597674560546874	0		4.926162109375	0.045916912078857425	0		5.9336142578125	0.36556430053710937	0		-0.2369629669189453	5.91602490234375	0		
-0.014674271583557129	1.8346099555492402E-4	0		0.5274071655273438	-2.490598876953125	0		-1.064845947265625	0.37314395141601564	0		-0.43016696166992185	-3.212662353515625	0		2.16483203125	-0.25053536987304686	0		3.76980810546875	0.12276490020751953	0		4.92692236328125	0.03170560646057129	0		5.933546875	0.36521621704101564	0		-0.25601690673828126	5.92001904296875	0		
2.89000004529953E-4	0.005833850860595703	0		0.5563041381835937	-2.4910947265625	0		-1.0158631591796874	0.3804412841796875	0		-0.33446206665039063	-3.231854248046875	0		2.1615458984375	-0.2686988220214844	0		3.78276123046875	0.12743153381347655	0		4.91682421875	0.03161073112487793	0		5.94327587890625	0.32136962890625	0		-0.24000474548339842	5.9296591796875	0		
0.015160978317260742	0.002495629072189331	0		0.5221410522460938	-2.496923583984375	0		-1.040988037109375	0.37752255249023436	0		-0.3467116394042969	-3.24590966796875	0		2.147262451171875	-0.28673959350585937	0		3.7655517578125	0.11641744232177734	0		4.91774951171875	0.0334054069519043	0		5.933408203125	0.36452783203125	0		-0.25717822265625	5.9206552734375	0		
0.015074199676513671	0.002323951005935669	0		0.5678864135742188	-2.51257568359375	0		-1.0081170043945313	0.3730108642578125	0		-0.3599657287597656	-3.260943603515625	0		2.141966552734375	-0.3068656921386719	0		3.74435205078125	0.10545186614990235	0		4.90052783203125	0.020394115447998046	0		5.929705078125	0.3469850158691406	0		-0.2221831817626953	5.926119140625	0		
-0.010080782890319825	-0.005577311038970947	0		0.536523193359375	-2.539415771484375	0		-1.051227783203125	0.36930133056640624	0		-0.34535540771484374	-3.29025927734375	0		2.143495849609375	-0.3450556945800781	0		3.745143798828125	0.09226427459716798	0		4.89639306640625	0.014253504753112793	0		5.9296533203125	0.34666134643554686	0		-0.257292236328125	5.9203232421875	0		
0.014944976806640625	0.002007033109664917	0		0.5972858276367188	-2.5562080078125	0		-1.051282470703125	0.3691513671875	0		-0.3385721435546875	-3.304484619140625	0		2.126334716796875	-0.35504132080078127	0		3.741025634765625	0.08613600158691406	0		4.90039892578125	0.020036224365234376	0		5.92961279296875	0.34635028076171875	0		-0.24220945739746094	5.9310126953125	0		
-0.01209152889251709	0.002141135931015015	0		0.551177978515625	-2.56187744140625	0		-1.0572666015625	0.37407009887695314	0		-0.3127598876953125	-3.317901611328125	0		2.1400859375	-0.3753421630859375	0		3.736925537109375	0.08001609802246094	0		4.896298828125	0.013911874771118164	0		5.93322607421875	0.36326400756835936	0		-0.2573282775878906	5.92102294921875	0		
0.018846580505371094	-0.0023242321014404297	0		0.597003662109375	-2.57650048828125	0		-1.0333270263671874	0.3696807556152344	0		-0.2770297241210937	-3.341417236328125	0		2.117743896484375	-0.4062587585449219	0		3.7328447265625	0.07390571594238281	0		4.8922177734375	0.007798241138458252	0		5.9452626953125	0.34538323974609375	0		-0.22227980041503906	5.92551611328125	0		
-0.012108316421508789	0.0018616470098495484	0		0.6008351440429688	-2.5926796875	0		-0.9613706665039062	0.3647928161621094	0		-0.28412542724609374	-3.35048095703125	0		2.123556884765625	-0.4244603881835938	0		3.72965869140625	0.05579626083374024	0		4.87423095703125	0.008843058586120606	0		5.93741845703125	0.345332275390625	0		-0.223260986328125	5.92638916015625	0		
0.010880765914916992	-0.0015127429962158204	0		0.6217646484375	-2.602031982421875	0		-1.03834521484375	0.365461181640625	0		-0.29017266845703127	-3.357552734375	0		2.102433837890625	-0.4383723449707031	0		3.693703125	0.05804186630249023	0		4.87425244140625	0.008714252471923829	0		5.9295888671875	0.34531033325195315	0		-0.24318241882324218	5.932462890625	0		
-0.007087542057037354	-0.0024572930335998535	0		0.5856614990234374	-2.61678564453125	0		-1.0323475341796875	0.3612621765136719	0		-0.27036984252929686	-3.381893798828125	0		2.12319384765625	-0.4657142639160156	0		3.689681640625	0.051965991973876954	0		4.85430517578125	0.009809625625610352	0		5.92961865234375	0.3451218566894531	0		-0.22707159423828124	5.941162109375	0		
0.018970756530761718	-0.002860018014907837	0		0.621623291015625	-2.628287841796875	0		-1.0273428955078125	0.35607138061523436	0		-0.2923472900390625	-3.38779736328125	0		2.09906005859375	-0.4845792236328125	0		3.707708740234375	0.04867338180541992	0		4.85436474609375	0.00971292781829834	0		5.9375068359375	0.34477001953125	0		-0.2250754852294922	5.93900830078125	0		
-0.011909372329711914	0.0013318829536437989	0		0.6166553955078125	-2.635359619140625	0		-0.9712628784179688	0.35634579467773436	0		-0.1355137176513672	-3.41556591796875	0		2.12090087890625	-0.5079156188964844	0		3.67275537109375	0.045947032928466795	0		4.8423896484375	0.0047594099044799805	0		5.92971630859375	0.34485302734375	0		-0.1929709014892578	5.947541015625	0		
0.01913776969909668	-0.0031212430000305174	0		0.6107116088867187	-2.64241845703125	0		-0.9762189331054687	0.3522532958984375	0		-0.26038772583007813	-3.41639794921875	0		2.087834228515625	-0.5236713256835938	0		3.654794189453125	0.04105723190307617	0		4.8375634765625	0.012750638961791991	0		5.9297822265625	0.3447770690917969	0		-0.24215139770507813	5.92991796875	0		
-0.011718334197998047	0.0010707550048828125	0		0.614704345703125	-2.657578369140625	0		-0.980166015625	0.34814718627929686	0		-0.1354600830078125	-3.43982958984375	0		2.0996943359375	-0.5478866577148438	0		3.6477802734375	0.030067018508911133	0		4.8236025390625	0.006854397773742676	0		5.92621484375	0.3275310974121094	0		-0.2080879364013672	5.93643017578125	0		
0.011355520248413086	-0.00229679799079895	0		0.622753662109375	-2.6687763671875	0		-1.0461571044921876	0.33968133544921875	0		-0.2443564453125	-3.44683154296875	0		2.070689697265625	-0.5596691284179688	0		3.64382373046875	0.02405868721008301	0		4.8277705078125	0.012787974357604981	0		5.92629248046875	0.32753143310546873	0		-0.22706779479980468	5.9404931640625	0		
